<svg xmlns="http://www.w3.org/2000/svg" width="420" height="96" viewBox="0 0 420 96"><g transform="translate(5 16) scale(2)"><path d="M5 14 16 4l11 10v14h-6V18H11v10H5Z" fill="none" stroke="#000000" stroke-width="2.2" stroke-linejoin="round"/><path d="m16 8 1 3 3 1-3 1-1 3-1-3-3-1 3-1Z" fill="#000000"/></g><g transform="translate(87 9)"><g fill="none" stroke="#000000" stroke-width="7" stroke-linecap="round" stroke-linejoin="round"><path d="M3 15v18q0 12 11 12t11-12V15m0 20v13q0 15-18 15"/><path d="M64 19q-5-5-11-5-14 0-14 16t14 16q6 0 11-5"/><path d="M103 17q-7-4-12-3-14 0-14 16t14 16q12 0 12-13V15v33q0 15-21 15"/></g><circle cx="120" cy="44" r="4" fill="#000000"/></g><text x="235" y="42" fill="#000000" font-family="Arial, sans-serif" font-size="17" font-weight="700" letter-spacing="1">YOUR CANADA</text><text x="235" y="65" fill="#000000" font-family="Arial, sans-serif" font-size="17" font-weight="700" letter-spacing="1">GUIDE</text></svg>